<?xml version="1.0" standalone="no"?>
<!DOCTYPE svg PUBLIC "-//W3C//DTD SVG 20010904//EN"
 "http://www.w3.org/TR/2001/REC-SVG-20010904/DTD/svg10.dtd">
<svg version="1.0" xmlns="http://www.w3.org/2000/svg"
 width="1667.000000pt" height="1667.000000pt" viewBox="0 0 1667.000000 1667.000000"
 preserveAspectRatio="xMidYMid meet">

<g transform="translate(0.000000,1667.000000) scale(0.100000,-0.100000)"
fill="#000000" stroke="none">
<path d="M7578 15850 c-192 -11 -431 -47 -735 -111 -1832 -385 -3434 -1448
-4593 -3044 -778 -1073 -1187 -2120 -1329 -3400 -35 -315 -44 -535 -38 -945 7
-473 30 -740 103 -1175 180 -1081 571 -2066 1147 -2890 960 -1374 2273 -2396
3817 -2970 836 -311 1762 -491 2625 -512 1046 -25 2264 248 3144 703 388 201
902 539 1196 786 166 139 297 290 279 320 -10 16 -55 7 -125 -27 -179 -85
-173 -14 13 183 78 82 109 128 101 149 -3 7 -25 25 -49 39 -26 15 -44 33 -44
44 0 9 17 37 39 61 46 53 74 106 67 125 -23 60 -244 -61 -706 -387 -376 -266
-655 -419 -761 -419 -107 0 -62 105 171 395 210 261 215 272 119 268 -106 -5
-277 -61 -704 -230 -693 -276 -1022 -369 -1595 -452 -547 -80 -1304 -143
-1508 -127 -79 7 -152 30 -152 48 0 11 60 39 177 82 107 40 127 54 138 98 19
76 -115 108 -585 138 -450 29 -1094 142 -1540 271 -485 140 -1132 487 -1695
909 -678 508 -1156 1069 -1557 1830 -307 581 -571 1405 -653 2035 -48 374 -42
1435 11 1850 38 300 137 689 274 1074 505 1429 1590 2625 3040 3351 712 357
1377 547 2175 622 210 20 814 16 1035 -5 929 -92 1713 -336 2465 -765 621
-355 1138 -754 1549 -1197 257 -277 458 -534 754 -965 100 -146 193 -278 207
-295 l25 -30 21 25 c17 20 19 32 14 69 -29 196 -348 707 -702 1126 -59 70
-139 164 -177 209 -89 105 -156 197 -156 213 0 23 45 14 104 -22 248 -149 518
-478 859 -1046 388 -647 662 -1234 812 -1744 218 -740 266 -1518 155 -2520
-66 -590 -148 -977 -300 -1400 -71 -198 -130 -404 -130 -451 0 -47 46 -44 122
6 162 107 332 513 462 1101 85 388 129 697 157 1104 17 251 23 1219 10 1446
-12 197 -17 238 -46 411 -25 141 -5 207 48 161 164 -146 290 -1645 212 -2523
-83 -931 -265 -1642 -582 -2275 -101 -202 -157 -297 -343 -580 -271 -412 -320
-514 -328 -675 -3 -81 -2 -98 13 -110 24 -20 72 8 151 93 334 353 784 1135
1034 1796 526 1391 602 3024 213 4566 -291 1154 -798 2155 -1549 3056 -147
177 -516 550 -683 692 -439 373 -939 695 -1596 1027 -639 322 -1231 542 -1830
679 -295 68 -532 102 -840 121 -220 14 -1236 21 -1427 10z m1362 -860 c465
-18 689 -44 993 -115 725 -168 1502 -532 2035 -951 200 -158 496 -483 448
-492 -25 -5 -187 85 -416 231 -831 529 -985 610 -1465 773 -694 236 -1105 306
-2075 349 -534 24 -601 36 -565 106 19 36 69 66 133 80 125 26 510 34 912 19z"/>
<path d="M10775 11149 c-649 -53 -1265 -324 -1624 -715 -142 -155 -280 -386
-336 -564 -70 -223 -52 -712 35 -970 57 -170 155 -322 314 -487 319 -332 655
-480 1556 -683 652 -147 798 -190 953 -281 93 -55 181 -143 215 -216 25 -53
27 -68 26 -173 -1 -129 -19 -195 -74 -275 -100 -146 -322 -232 -679 -265 -148
-14 -549 -14 -676 0 -404 44 -967 260 -1380 530 -242 157 -290 178 -334 143
-51 -41 -54 -82 -59 -695 l-4 -567 319 -104 c481 -159 710 -216 1026 -257 459
-59 1103 -50 1522 21 748 127 1262 437 1560 944 80 136 132 250 155 339 35
140 53 590 29 763 -6 43 -26 124 -44 180 -160 482 -512 768 -1225 998 -80 25
-336 93 -570 151 -849 208 -978 246 -1097 323 -394 254 -162 759 396 865 255
49 724 44 996 -10 268 -53 771 -273 1075 -471 145 -94 212 -128 233 -120 8 3
17 25 21 49 15 92 25 410 26 804 l0 412 -129 41 c-528 168 -989 255 -1546 291
-182 11 -532 11 -680 -1z"/>
<path d="M3920 8335 l0 -2705 1955 0 1955 0 2 516 c2 284 1 518 -1 520 -2 2
-575 4 -1273 4 l-1268 0 5 2185 4 2185 -690 0 -689 0 0 -2705z"/>
</g>
</svg>
